<svg width="25" height="24" viewBox="0 0 25 24" fill="none" xmlns="http://www.w3.org/2000/svg">
<path d="M13.2312 5C10.3287 5 7.9812 7.3475 7.9812 10.25C7.9812 14.1875 13.2312 20 13.2312 20C13.2312 20 18.4812 14.1875 18.4812 10.25C18.4812 7.3475 16.1337 5 13.2312 5ZM9.4812 10.25C9.4812 8.18 11.1612 6.5 13.2312 6.5C15.3012 6.5 16.9812 8.18 16.9812 10.25C16.9812 12.41 14.8212 15.6425 13.2312 17.66C11.6712 15.6575 9.4812 12.3875 9.4812 10.25Z" fill="white"/>
<path d="M13.2312 12.125C14.2667 12.125 15.1062 11.2855 15.1062 10.25C15.1062 9.21447 14.2667 8.375 13.2312 8.375C12.1957 8.375 11.3562 9.21447 11.3562 10.25C11.3562 11.2855 12.1957 12.125 13.2312 12.125Z" fill="white"/>
</svg>
